<svg width="600" height="180" viewBox="0 0 600 180" fill="none" xmlns="http://www.w3.org/2000/svg">
<path opacity="0.07" d="M0.600001 176V7.99999H71.76C106.56 7.99999 126.96 26.24 126.96 53.84V54.32C126.96 75.44 115.68 89.36 98.4 94.64C119.52 99.92 133.2 113.36 133.2 136.4V136.88C133.2 166.16 111.12 176 73.68 176H0.600001ZM56.76 76.16H65.88C74.88 76.16 80.16 72.32 80.16 65.36V64.88C80.16 57.92 74.88 54.08 65.88 54.08H56.76V76.16ZM56.76 129.92H68.28C78.12 129.92 84.12 125.84 84.12 118.16V117.68C84.12 110 78.12 105.92 68.28 105.92H56.76V129.92ZM197.983 179.12C155.023 179.12 125.983 152.48 125.983 111.68V110.24C125.983 69.44 155.263 42.8 197.983 42.8C240.703 42.8 269.983 69.44 269.983 110.24V111.68C269.983 152.48 240.943 179.12 197.983 179.12ZM197.983 139.04C211.183 139.04 218.863 129.2 218.863 110.96C218.863 92.72 211.183 82.88 197.983 82.88C184.783 82.88 177.103 92.72 177.103 110.96C177.103 129.2 184.783 139.04 197.983 139.04ZM278.221 176V7.99999H333.701V176H278.221ZM416.298 179.12C375.498 179.12 348.858 152.48 348.858 111.68V110.24C348.858 69.92 374.778 42.8 413.418 42.8C445.578 42.8 469.338 62.96 475.578 92.96L429.258 105.44C426.618 93.92 421.098 87.2 413.178 87.2C401.658 87.2 393.978 97.04 393.978 110.72V111.92C393.978 125.6 401.418 135.2 413.418 135.2C422.298 135.2 428.058 129.2 431.178 117.44L477.498 129.44C471.018 160.64 446.538 179.12 416.298 179.12ZM556.458 179.12C515.658 179.12 489.018 152.48 489.018 111.68V110.24C489.018 69.92 514.938 42.8 553.578 42.8C585.738 42.8 600 62.96 600 92.96V105.44H534.218C537.338 117.92 545.018 124.88 556.698 124.88C565.578 124.88 572.778 120.8 578.778 113.36L598.458 135.44C586.458 151.76 571.818 179.12 556.458 179.12ZM534.458 86.96H553.818C552.858 75.92 547.098 70.16 539.658 70.16C532.218 70.16 526.458 75.92 525.498 86.96H534.458Z" fill="white"/>
</svg>