<svg width="1100" height="200" viewBox="0 0 1100 200" fill="none" xmlns="http://www.w3.org/2000/svg">
  <!-- Letter S (very simple clean S) -->
  <path opacity="0.07" d="M56 176C28 176 8 156 8 128V116H48V128C48 136 52 140 60 140H80C88 140 92 136 92 128V112C92 104 88 100 80 100H56C28 100 8 80 8 52V36C8 8 28 -12 56 -12H80C108 -12 128 8 128 36V48H88V36C88 28 84 24 76 24H56C48 24 44 28 44 36V52C44 60 48 64 56 64H80C108 64 128 84 128 112V128C128 156 108 176 80 176H56Z" fill="white" transform="translate(0, 20)"/>
  
  <!-- Letter t -->
  <path opacity="0.07" d="M200 176V8H255V44H295V82H255V138C255 153 260 158 275 158H295V176H265C225 176 200 158 200 128V82H180V44H200V8Z" fill="white"/>
  
  <!-- Letter e -->
  <path opacity="0.07" d="M400 179C357 179 328 152 328 111V110C328 71 356 41 395 41C441 41 463 74 463 114C463 116 463 120 462 123H379C382 134 392 140 403 140C413 140 421 136 430 127L459 150C446 167 428 179 400 179ZM378 99H413C412 86 405 79 395 79C386 79 380 87 378 99Z" fill="white"/>
  
  <!-- Letter l -->
  <path opacity="0.07" d="M510 176V8H565V176H510Z" fill="white"/>
  
  <!-- Letter l -->
  <path opacity="0.07" d="M600 176V8H655V176H600Z" fill="white"/>
  
  <!-- Letter i -->
  <path opacity="0.07" d="M690 36V0H745V36H690ZM691 176V44H744V176H691Z" fill="white"/>
  
  <!-- Letter x -->
  <path opacity="0.07" d="M780 176L830 110L780 44H845L870 80L895 44H960L910 110L960 176H895L870 140L845 176H780Z" fill="white"/>
  
  <!-- Dot . -->
  <rect opacity="0.07" x="990" y="140" width="36" height="36" fill="white"/>
</svg>